<svg width="30" height="30" viewBox="0 0 30 30" fill="none" xmlns="http://www.w3.org/2000/svg">
<path fill-rule="evenodd" clip-rule="evenodd" d="M15 30C17.9837 30 20.8452 28.8147 22.955 26.705C25.0647 24.5952 26.25 21.7337 26.25 18.75C26.25 15.6469 24.1462 13.305 21.69 10.5713C19.2262 7.83 16.4062 4.69313 15 0C15 0 3.75 10.6612 3.75 18.75C3.75 21.7337 4.93526 24.5952 7.04505 26.705C9.15483 28.8147 12.0163 30 15 30ZM12.4612 8.71125C11.7562 9.41812 10.0762 11.5031 8.53687 14.58L10.2131 15.42C11.6756 12.4969 13.2431 10.5825 13.7888 10.0388L12.4612 8.71125Z" fill="#0751A5"/>
</svg>
