<svg width="30" height="30" viewBox="0 0 30 30" fill="none" xmlns="http://www.w3.org/2000/svg">
<g clip-path="url(#clip0_47_181)">
<path fill-rule="evenodd" clip-rule="evenodd" d="M16.5831 3.06295C16.1218 1.49732 13.9056 1.49732 13.4443 3.06295L13.2681 3.66107C13.1199 4.16347 12.8611 4.62635 12.5108 5.0158C12.1605 5.40525 11.7276 5.71141 11.2436 5.91186C10.7597 6.1123 10.237 6.20195 9.71396 6.17424C9.19089 6.14652 8.68064 6.00215 8.22059 5.7517L7.67309 5.4517C6.24059 4.67357 4.67309 6.2392 5.45309 7.67357L5.75121 8.22107C6.00167 8.68113 6.14604 9.19138 6.17375 9.71445C6.20146 10.2375 6.11181 10.7602 5.91137 11.2441C5.71092 11.7281 5.40476 12.161 5.01531 12.5113C4.62586 12.8616 4.16298 13.1203 3.66059 13.2686L3.06246 13.4448C1.49684 13.9061 1.49684 16.1223 3.06246 16.5836L3.66059 16.7598C4.16325 16.908 4.62638 17.1668 5.01602 17.5172C5.40567 17.8676 5.71195 18.3008 5.91242 18.785C6.11289 19.2691 6.20246 19.7921 6.17457 20.3154C6.14667 20.8387 6.00202 21.3491 5.75121 21.8092L5.45121 22.3548C4.67309 23.7873 6.23871 25.3548 7.67309 24.5748L8.22059 24.2767C8.68076 24.0263 9.19114 23.882 9.71432 23.8544C10.2375 23.8268 10.7602 23.9166 11.2442 24.1172C11.7281 24.3179 12.1611 24.6242 12.5113 25.0139C12.8615 25.4036 13.1201 25.8666 13.2681 26.3692L13.4443 26.9654C13.9056 28.5311 16.1218 28.5311 16.5831 26.9654L16.7593 26.3673C16.9075 25.8647 17.1663 25.4015 17.5167 25.0119C17.8671 24.6222 18.3003 24.316 18.7845 24.1155C19.2687 23.915 19.7916 23.8254 20.3149 23.8533C20.8382 23.8812 21.3486 24.0259 21.8087 24.2767L22.3543 24.5767C23.7868 25.3548 25.3543 23.7892 24.5743 22.3548L24.2762 21.8092C24.0254 21.349 23.8808 20.8384 23.8531 20.315C23.8253 19.7916 23.915 19.2686 24.1157 18.7844C24.3163 18.3002 24.6228 17.8671 25.0127 17.5167C25.4026 17.1664 25.8659 16.9078 26.3687 16.7598L26.965 16.5836C28.5306 16.1223 28.5306 13.9061 26.965 13.4448L26.3668 13.2686C25.8644 13.1203 25.4016 12.8616 25.0121 12.5113C24.6227 12.161 24.3165 11.7281 24.1161 11.2441C23.9156 10.7602 23.826 10.2375 23.8537 9.71445C23.8814 9.19138 24.0258 8.68113 24.2762 8.22107L24.5762 7.67357C25.3543 6.24107 23.7887 4.67357 22.3543 5.45357L21.8087 5.7517C21.3485 6.00286 20.8379 6.14779 20.3144 6.17587C19.7909 6.20395 19.2677 6.11446 18.7833 5.91397C18.2989 5.71347 17.8655 5.40706 17.5149 5.01722C17.1644 4.62738 16.9056 4.164 16.7575 3.66107L16.5812 3.06295H16.5831ZM11.6462 2.53232C12.6343 -0.823926 17.3931 -0.823926 18.3812 2.53232L18.5575 3.13045C18.6265 3.36473 18.747 3.58061 18.9103 3.76225C19.0736 3.94388 19.2754 4.08668 19.5011 4.18017C19.7267 4.27366 19.9704 4.31547 20.2143 4.30255C20.4582 4.28962 20.6961 4.22227 20.9106 4.10545L21.4581 3.80545C24.5331 2.13295 27.8968 5.49482 26.2206 8.56982L25.9225 9.11732C25.8056 9.33181 25.7383 9.56972 25.7254 9.81361C25.7124 10.0575 25.7542 10.3012 25.8477 10.5268C25.9412 10.7525 26.084 10.9543 26.2657 11.1176C26.4473 11.2809 26.6632 11.4014 26.8975 11.4704L27.4956 11.6467C30.8518 12.6348 30.8518 17.3936 27.4956 18.3817L26.8975 18.558C26.6632 18.627 26.4473 18.7475 26.2657 18.9108C26.084 19.0741 25.9412 19.2759 25.8477 19.5016C25.7542 19.7272 25.7124 19.9709 25.7254 20.2148C25.7383 20.4587 25.8056 20.6966 25.9225 20.9111L26.2225 21.4586C27.8968 24.5336 24.5312 27.8973 21.4581 26.2211L20.9106 25.9229C20.6961 25.8061 20.4582 25.7388 20.2143 25.7259C19.9704 25.7129 19.7267 25.7547 19.5011 25.8482C19.2754 25.9417 19.0736 26.0845 18.9103 26.2662C18.747 26.4478 18.6265 26.6637 18.5575 26.898L18.3812 27.4961C17.3931 30.8523 12.6343 30.8523 11.6462 27.4961L11.47 26.898C11.401 26.6637 11.2804 26.4478 11.1171 26.2662C10.9538 26.0845 10.752 25.9417 10.5264 25.8482C10.3007 25.7547 10.057 25.7129 9.81313 25.7259C9.56923 25.7388 9.33132 25.8061 9.11684 25.9229L8.56934 26.2229C5.49434 27.8973 2.13246 24.5317 3.80684 21.4586L4.10496 20.9111C4.22178 20.6966 4.28913 20.4587 4.30206 20.2148C4.31499 19.9709 4.27317 19.7272 4.17968 19.5016C4.08619 19.2759 3.9434 19.0741 3.76176 18.9108C3.58012 18.7475 3.36425 18.627 3.12996 18.558L2.53184 18.3817C-0.824414 17.3936 -0.824414 12.6348 2.53184 11.6467L3.12996 11.4704C3.36425 11.4014 3.58012 11.2809 3.76176 11.1176C3.9434 10.9543 4.08619 10.7525 4.17968 10.5268C4.27317 10.3012 4.31499 10.0575 4.30206 9.81361C4.28913 9.56972 4.22178 9.33181 4.10496 9.11732L3.80496 8.56982C2.13246 5.49482 5.49621 2.13295 8.56934 3.80732L9.11684 4.10545C9.33132 4.22227 9.56923 4.28962 9.81313 4.30255C10.057 4.31547 10.3007 4.27366 10.5264 4.18017C10.752 4.08668 10.9538 3.94388 11.1171 3.76225C11.2804 3.58061 11.401 3.36473 11.47 3.13045L11.6462 2.53232V2.53232Z" fill="black"/>
<path fill-rule="evenodd" clip-rule="evenodd" d="M14.9998 10.7886C13.8829 10.7886 12.8118 11.2323 12.022 12.022C11.2323 12.8118 10.7886 13.8829 10.7886 14.9998C10.7886 16.1167 11.2323 17.1879 12.022 17.9776C12.8118 18.7674 13.8829 19.2111 14.9998 19.2111C16.1167 19.2111 17.1879 18.7674 17.9776 17.9776C18.7674 17.1879 19.2111 16.1167 19.2111 14.9998C19.2111 13.8829 18.7674 12.8118 17.9776 12.022C17.1879 11.2323 16.1167 10.7886 14.9998 10.7886V10.7886ZM8.91357 14.9998C8.91357 14.2006 9.071 13.4091 9.37686 12.6707C9.68273 11.9323 10.131 11.2614 10.6962 10.6962C11.2614 10.131 11.9323 9.68273 12.6707 9.37686C13.4091 9.071 14.2006 8.91357 14.9998 8.91357C15.7991 8.91357 16.5905 9.071 17.3289 9.37686C18.0673 9.68273 18.7383 10.131 19.3035 10.6962C19.8686 11.2614 20.3169 11.9323 20.6228 12.6707C20.9286 13.4091 21.0861 14.2006 21.0861 14.9998C21.0861 16.614 20.4448 18.1621 19.3035 19.3035C18.1621 20.4448 16.614 21.0861 14.9998 21.0861C13.3857 21.0861 11.8376 20.4448 10.6962 19.3035C9.5548 18.1621 8.91357 16.614 8.91357 14.9998V14.9998Z" fill="black"/>
</g>
<defs>
<clipPath id="clip0_47_181">
<rect width="30" height="30" fill="white"/>
</clipPath>
</defs>
</svg>
