<svg width="14" height="12" viewBox="0 0 14 12" fill="none" xmlns="http://www.w3.org/2000/svg">
<g clip-path="url(#clip0_47_216)">
<path fill-rule="evenodd" clip-rule="evenodd" d="M10.3431 6.705C10.7506 5.90025 10.9843 5.1465 10.9843 4.5C10.9843 3.50544 10.5793 2.55161 9.8583 1.84835C9.13734 1.14509 8.1595 0.75 7.1399 0.75C6.1203 0.75 5.14246 1.14509 4.42149 1.84835C3.70053 2.55161 3.29549 3.50544 3.29549 4.5C3.29549 5.1465 3.53 5.90025 3.93674 6.705C4.33963 7.5015 4.88554 8.295 5.44375 9.0075C5.97326 9.67922 6.53947 10.3227 7.1399 10.935L7.29983 10.77C7.84111 10.2073 8.3538 9.61912 8.83605 9.0075C9.39426 8.295 9.94016 7.5015 10.3431 6.705ZM7.1399 12C7.1399 12 11.7532 7.7355 11.7532 4.5C11.7532 3.30653 11.2671 2.16193 10.402 1.31802C9.53682 0.474106 8.36342 0 7.1399 0C5.91638 0 4.74297 0.474106 3.87781 1.31802C3.01265 2.16193 2.52661 3.30653 2.52661 4.5C2.52661 7.7355 7.1399 12 7.1399 12Z" fill="white"/>
<path fill-rule="evenodd" clip-rule="evenodd" d="M7.1399 6C7.54774 6 7.93887 5.84196 8.22726 5.56066C8.51564 5.27936 8.67766 4.89782 8.67766 4.5C8.67766 4.10218 8.51564 3.72064 8.22726 3.43934C7.93887 3.15804 7.54774 3 7.1399 3C6.73206 3 6.34092 3.15804 6.05253 3.43934C5.76415 3.72064 5.60213 4.10218 5.60213 4.5C5.60213 4.89782 5.76415 5.27936 6.05253 5.56066C6.34092 5.84196 6.73206 6 7.1399 6V6ZM7.1399 6.75C7.75166 6.75 8.33836 6.51295 8.77094 6.09099C9.20352 5.66903 9.44654 5.09674 9.44654 4.5C9.44654 3.90326 9.20352 3.33097 8.77094 2.90901C8.33836 2.48705 7.75166 2.25 7.1399 2.25C6.52814 2.25 5.94143 2.48705 5.50885 2.90901C5.07627 3.33097 4.83325 3.90326 4.83325 4.5C4.83325 5.09674 5.07627 5.66903 5.50885 6.09099C5.94143 6.51295 6.52814 6.75 7.1399 6.75V6.75Z" fill="white"/>
</g>
<defs>
<clipPath id="clip0_47_216">
<rect width="12.3021" height="12" fill="white" transform="translate(0.98877)"/>
</clipPath>
</defs>
</svg>
