<svg width="30" height="30" viewBox="0 0 30 30" fill="none" xmlns="http://www.w3.org/2000/svg">
<rect width="30" height="30" rx="5" fill="#F2AC5C"/>
<path fill-rule="evenodd" clip-rule="evenodd" d="M1.875 4.6875C1.875 3.94158 2.17132 3.22621 2.69876 2.69876C3.22621 2.17132 3.94158 1.875 4.6875 1.875H10.3125C11.0584 1.875 11.7738 2.17132 12.3012 2.69876C12.8287 3.22621 13.125 3.94158 13.125 4.6875V10.3125C13.125 11.0584 12.8287 11.7738 12.3012 12.3012C11.7738 12.8287 11.0584 13.125 10.3125 13.125H4.6875C3.94158 13.125 3.22621 12.8287 2.69876 12.3012C2.17132 11.7738 1.875 11.0584 1.875 10.3125V4.6875ZM4.6875 3.75C4.43886 3.75 4.2004 3.84877 4.02459 4.02459C3.84877 4.2004 3.75 4.43886 3.75 4.6875V10.3125C3.75 10.5611 3.84877 10.7996 4.02459 10.9754C4.2004 11.1512 4.43886 11.25 4.6875 11.25H10.3125C10.5611 11.25 10.7996 11.1512 10.9754 10.9754C11.1512 10.7996 11.25 10.5611 11.25 10.3125V4.6875C11.25 4.43886 11.1512 4.2004 10.9754 4.02459C10.7996 3.84877 10.5611 3.75 10.3125 3.75H4.6875ZM16.875 4.6875C16.875 3.94158 17.1713 3.22621 17.6988 2.69876C18.2262 2.17132 18.9416 1.875 19.6875 1.875H25.3125C26.0584 1.875 26.7738 2.17132 27.3012 2.69876C27.8287 3.22621 28.125 3.94158 28.125 4.6875V10.3125C28.125 11.0584 27.8287 11.7738 27.3012 12.3012C26.7738 12.8287 26.0584 13.125 25.3125 13.125H19.6875C18.9416 13.125 18.2262 12.8287 17.6988 12.3012C17.1713 11.7738 16.875 11.0584 16.875 10.3125V4.6875ZM19.6875 3.75C19.4389 3.75 19.2004 3.84877 19.0246 4.02459C18.8488 4.2004 18.75 4.43886 18.75 4.6875V10.3125C18.75 10.5611 18.8488 10.7996 19.0246 10.9754C19.2004 11.1512 19.4389 11.25 19.6875 11.25H25.3125C25.5611 11.25 25.7996 11.1512 25.9754 10.9754C26.1512 10.7996 26.25 10.5611 26.25 10.3125V4.6875C26.25 4.43886 26.1512 4.2004 25.9754 4.02459C25.7996 3.84877 25.5611 3.75 25.3125 3.75H19.6875ZM1.875 19.6875C1.875 18.9416 2.17132 18.2262 2.69876 17.6988C3.22621 17.1713 3.94158 16.875 4.6875 16.875H10.3125C11.0584 16.875 11.7738 17.1713 12.3012 17.6988C12.8287 18.2262 13.125 18.9416 13.125 19.6875V25.3125C13.125 26.0584 12.8287 26.7738 12.3012 27.3012C11.7738 27.8287 11.0584 28.125 10.3125 28.125H4.6875C3.94158 28.125 3.22621 27.8287 2.69876 27.3012C2.17132 26.7738 1.875 26.0584 1.875 25.3125V19.6875ZM4.6875 18.75C4.43886 18.75 4.2004 18.8488 4.02459 19.0246C3.84877 19.2004 3.75 19.4389 3.75 19.6875V25.3125C3.75 25.5611 3.84877 25.7996 4.02459 25.9754C4.2004 26.1512 4.43886 26.25 4.6875 26.25H10.3125C10.5611 26.25 10.7996 26.1512 10.9754 25.9754C11.1512 25.7996 11.25 25.5611 11.25 25.3125V19.6875C11.25 19.4389 11.1512 19.2004 10.9754 19.0246C10.7996 18.8488 10.5611 18.75 10.3125 18.75H4.6875ZM16.875 19.6875C16.875 18.9416 17.1713 18.2262 17.6988 17.6988C18.2262 17.1713 18.9416 16.875 19.6875 16.875H25.3125C26.0584 16.875 26.7738 17.1713 27.3012 17.6988C27.8287 18.2262 28.125 18.9416 28.125 19.6875V25.3125C28.125 26.0584 27.8287 26.7738 27.3012 27.3012C26.7738 27.8287 26.0584 28.125 25.3125 28.125H19.6875C18.9416 28.125 18.2262 27.8287 17.6988 27.3012C17.1713 26.7738 16.875 26.0584 16.875 25.3125V19.6875ZM19.6875 18.75C19.4389 18.75 19.2004 18.8488 19.0246 19.0246C18.8488 19.2004 18.75 19.4389 18.75 19.6875V25.3125C18.75 25.5611 18.8488 25.7996 19.0246 25.9754C19.2004 26.1512 19.4389 26.25 19.6875 26.25H25.3125C25.5611 26.25 25.7996 26.1512 25.9754 25.9754C26.1512 25.7996 26.25 25.5611 26.25 25.3125V19.6875C26.25 19.4389 26.1512 19.2004 25.9754 19.0246C25.7996 18.8488 25.5611 18.75 25.3125 18.75H19.6875Z" fill="#245C9C"/>
</svg>
