<svg width="40" height="40" viewBox="0 0 40 40" fill="none" xmlns="http://www.w3.org/2000/svg">
<g clip-path="url(#clip0_41_170)">
<path fill-rule="evenodd" clip-rule="evenodd" d="M33.75 2.5H6.25C5.58696 2.5 4.95107 2.76339 4.48223 3.23223C4.01339 3.70107 3.75 4.33696 3.75 5V35C3.75 35.663 4.01339 36.2989 4.48223 36.7678C4.95107 37.2366 5.58696 37.5 6.25 37.5H33.75C34.413 37.5 35.0489 37.2366 35.5178 36.7678C35.9866 36.2989 36.25 35.663 36.25 35V5C36.25 4.33696 35.9866 3.70107 35.5178 3.23223C35.0489 2.76339 34.413 2.5 33.75 2.5ZM6.25 0C4.92392 0 3.65215 0.526784 2.71447 1.46447C1.77678 2.40215 1.25 3.67392 1.25 5V35C1.25 36.3261 1.77678 37.5979 2.71447 38.5355C3.65215 39.4732 4.92392 40 6.25 40H33.75C35.0761 40 36.3479 39.4732 37.2855 38.5355C38.2232 37.5979 38.75 36.3261 38.75 35V5C38.75 3.67392 38.2232 2.40215 37.2855 1.46447C36.3479 0.526784 35.0761 0 33.75 0L6.25 0Z" fill="white"/>
<path d="M16.25 7.5C16.25 6.83696 16.5134 6.20107 16.9822 5.73223C17.4511 5.26339 18.087 5 18.75 5H21.25C21.913 5 22.5489 5.26339 23.0178 5.73223C23.4866 6.20107 23.75 6.83696 23.75 7.5V15C23.75 15.663 23.4866 16.2989 23.0178 16.7678C22.5489 17.2366 21.913 17.5 21.25 17.5H18.75C18.087 17.5 17.4511 17.2366 16.9822 16.7678C16.5134 16.2989 16.25 15.663 16.25 15V7.5ZM6.25 7.5C6.25 6.83696 6.51339 6.20107 6.98223 5.73223C7.45107 5.26339 8.08696 5 8.75 5H11.25C11.913 5 12.5489 5.26339 13.0178 5.73223C13.4866 6.20107 13.75 6.83696 13.75 7.5V25C13.75 25.663 13.4866 26.2989 13.0178 26.7678C12.5489 27.2366 11.913 27.5 11.25 27.5H8.75C8.08696 27.5 7.45107 27.2366 6.98223 26.7678C6.51339 26.2989 6.25 25.663 6.25 25V7.5ZM26.25 7.5C26.25 6.83696 26.5134 6.20107 26.9822 5.73223C27.4511 5.26339 28.087 5 28.75 5H31.25C31.913 5 32.5489 5.26339 33.0178 5.73223C33.4866 6.20107 33.75 6.83696 33.75 7.5V32.5C33.75 33.163 33.4866 33.7989 33.0178 34.2678C32.5489 34.7366 31.913 35 31.25 35H28.75C28.087 35 27.4511 34.7366 26.9822 34.2678C26.5134 33.7989 26.25 33.163 26.25 32.5V7.5Z" fill="white"/>
</g>
<defs>
<clipPath id="clip0_41_170">
<rect width="40" height="40" fill="white"/>
</clipPath>
</defs>
</svg>
