<svg width="30" height="30" viewBox="0 0 30 30" fill="none" xmlns="http://www.w3.org/2000/svg">
<g clip-path="url(#clip0_47_183)">
<path fill-rule="evenodd" clip-rule="evenodd" d="M21.096 0.127352C21.2795 0.233736 21.4215 0.399208 21.4988 0.596735C21.5761 0.794261 21.5842 1.01217 21.5216 1.21485L18.1447 12.1874H24.3754C24.5585 12.1873 24.7376 12.2408 24.8906 12.3414C25.0436 12.4419 25.1639 12.5851 25.2364 12.7532C25.309 12.9213 25.3308 13.107 25.2991 13.2873C25.2673 13.4677 25.1835 13.6348 25.0579 13.768L10.0579 29.7055C9.91274 29.8598 9.7196 29.9604 9.50995 29.991C9.3003 30.0215 9.08649 29.9801 8.90338 29.8735C8.72027 29.767 8.57865 29.6015 8.50161 29.4042C8.42456 29.2068 8.41664 28.9892 8.47912 28.7867L11.856 17.8124H5.62537C5.44227 17.8124 5.26315 17.7589 5.11014 17.6583C4.95712 17.5578 4.83689 17.4146 4.76431 17.2465C4.69172 17.0784 4.66995 16.8927 4.70169 16.7124C4.73342 16.532 4.81726 16.365 4.94287 16.2317L19.9429 0.294227C20.0878 0.1401 20.2807 0.0395428 20.49 0.00890523C20.6994 -0.0217324 20.913 0.0193515 21.096 0.125477V0.127352ZM7.79475 15.9374H13.1254C13.2721 15.9373 13.4168 15.9717 13.5478 16.0378C13.6788 16.1039 13.7924 16.1998 13.8796 16.3178C13.9668 16.4358 14.025 16.5726 14.0497 16.7172C14.0744 16.8618 14.0648 17.0102 14.0216 17.1505L11.4566 25.4811L22.2041 14.0624H16.8754C16.7287 14.0624 16.584 14.028 16.453 13.9619C16.322 13.8958 16.2083 13.7999 16.1212 13.6819C16.034 13.5639 15.9757 13.4271 15.951 13.2825C15.9264 13.1379 15.936 12.9895 15.9791 12.8492L18.5441 4.5186L7.79475 15.9374Z" fill="black"/>
</g>
<defs>
<clipPath id="clip0_47_183">
<rect width="30" height="30" fill="white"/>
</clipPath>
</defs>
</svg>
