<svg width="60" height="60" viewBox="0 0 60 60" fill="none" xmlns="http://www.w3.org/2000/svg">
<rect x="0.5" y="0.5" width="59" height="59" rx="14.5" fill="#F2AC5C" stroke="#D0CFCF"/>
<g clip-path="url(#clip0_47_223)">
<path fill-rule="evenodd" clip-rule="evenodd" d="M31.8183 12.3244C30.8141 11.3202 29.1859 11.3202 28.1817 12.3244L12.7532 27.753C11.7489 28.7572 11.7489 30.3854 12.7532 31.3896C13.7574 32.3938 15.3855 32.3938 16.3897 31.3896L17.1429 30.6364V42.4284C17.1429 43.8486 18.2941 44.9999 19.7143 44.9999H40.2857C41.7059 44.9999 42.8571 43.8486 42.8571 42.4284V30.6364L43.6103 31.3896C44.6145 32.3938 46.2427 32.3938 47.2468 31.3896C48.251 30.3854 48.251 28.7572 47.2468 27.753L31.8183 12.3244Z" fill="#0751A5"/>
</g>
<defs>
<clipPath id="clip0_47_223">
<rect width="36" height="36" fill="white" transform="translate(12 9)"/>
</clipPath>
</defs>
</svg>
