<svg width="30" height="30" viewBox="0 0 30 30" fill="none" xmlns="http://www.w3.org/2000/svg">
<path fill-rule="evenodd" clip-rule="evenodd" d="M10.2075 3.73313C8.49282 4.1941 6.78922 4.69549 5.09817 5.23687C4.94513 5.28411 4.80853 5.37357 4.70405 5.49496C4.59957 5.61636 4.53146 5.76476 4.50754 5.92312C3.50817 13.23 5.81442 18.5625 8.56504 22.0744C9.94504 23.8369 11.4394 25.1419 12.6844 25.9988C13.3088 26.4263 13.8582 26.7375 14.2913 26.9363C14.5088 27.0356 14.685 27.1031 14.82 27.1425C14.8796 27.1616 14.9403 27.1767 15.0019 27.1875C15.015 27.1856 15.0732 27.1781 15.1838 27.1444C15.3188 27.1031 15.495 27.0356 15.7125 26.9363C16.1438 26.7375 16.6969 26.4263 17.3194 25.9988C18.8806 24.9034 20.2691 23.5806 21.4388 22.0744C24.1894 18.5625 26.4957 13.23 25.4963 5.92312C25.4724 5.76476 25.4043 5.61636 25.2998 5.49496C25.1953 5.37357 25.0587 5.28411 24.9057 5.23687C23.7319 4.86187 21.7519 4.25063 19.7963 3.73313C17.7975 3.20625 15.9582 2.8125 15.0019 2.8125C14.0457 2.8125 12.2082 3.20625 10.2075 3.73313ZM9.72754 1.92187C11.6832 1.40437 13.7588 0.9375 15.0019 0.9375C16.2432 0.9375 18.3207 1.40437 20.2763 1.92187C22.0206 2.3902 23.7536 2.89972 25.4738 3.45C26.4638 3.765 27.21 4.61812 27.3544 5.67C28.4288 13.5394 25.9369 19.3706 22.9163 23.2294C21.6291 24.8854 20.1008 26.339 18.3825 27.5419C17.7851 27.9604 17.1535 28.3279 16.4944 28.6406C15.9882 28.8731 15.4482 29.0625 15.0019 29.0625C14.5557 29.0625 14.0157 28.8731 13.5094 28.6406C12.8502 28.3282 12.2186 27.9606 11.6213 27.5419C9.90368 26.3389 8.37609 24.8852 7.08942 23.2294C4.06504 19.3706 1.57504 13.5394 2.64942 5.67C2.72125 5.16013 2.93601 4.68103 3.26883 4.28815C3.60165 3.89527 4.03892 3.60468 4.53004 3.45C6.25026 2.89973 7.98324 2.39022 9.72754 1.92187V1.92187Z" fill="black"/>
<path d="M17.8125 12.188C17.8128 12.7698 17.6326 13.3375 17.2968 13.8126C16.961 14.2878 16.4861 14.6472 15.9375 14.8411L16.6594 18.5724C16.6856 18.7081 16.6816 18.8479 16.6475 18.9819C16.6133 19.1158 16.55 19.2406 16.462 19.3472C16.3741 19.4538 16.2636 19.5396 16.1386 19.5986C16.0135 19.6575 15.877 19.688 15.7388 19.688H14.2613C14.1232 19.6877 13.9869 19.657 13.8621 19.598C13.7372 19.5389 13.627 19.453 13.5392 19.3465C13.4515 19.2399 13.3883 19.1152 13.3543 18.9814C13.3203 18.8476 13.3163 18.7079 13.3425 18.5724L14.0625 14.8411C13.5764 14.6693 13.1469 14.3671 12.821 13.9677C12.495 13.5682 12.2851 13.0869 12.2142 12.5762C12.1433 12.0656 12.2142 11.5452 12.419 11.0721C12.6238 10.599 12.9547 10.1913 13.3756 9.89348C13.7965 9.59571 14.2911 9.41936 14.8054 9.38369C15.3197 9.34803 15.834 9.45441 16.2919 9.69124C16.7499 9.92806 17.1339 10.2862 17.4021 10.7265C17.6703 11.1669 17.8122 11.6724 17.8125 12.188V12.188Z" fill="black"/>
</svg>
