<svg width="30" height="30" viewBox="0 0 30 30" fill="none" xmlns="http://www.w3.org/2000/svg">
<path fill-rule="evenodd" clip-rule="evenodd" d="M11.25 3.75C11.25 2.75544 11.6451 1.80161 12.3483 1.09835C13.0516 0.395088 14.0054 0 15 0C15.9946 0 16.9484 0.395088 17.6516 1.09835C18.3549 1.80161 18.75 2.75544 18.75 3.75V18.0506C19.8965 18.849 20.7584 19.9924 21.2101 21.3145C21.6618 22.6366 21.6797 24.0683 21.2613 25.4013C20.843 26.7343 20.0101 27.899 18.8839 28.7259C17.7578 29.5528 16.3971 29.9986 15 29.9986C13.6029 29.9986 12.2422 29.5528 11.1161 28.7259C9.98991 27.899 9.15703 26.7343 8.73865 25.4013C8.32028 24.0683 8.33824 22.6366 8.78993 21.3145C9.24162 19.9924 10.1035 18.849 11.25 18.0506V3.75ZM15 1.875C14.5027 1.875 14.0258 2.07254 13.6742 2.42417C13.3225 2.77581 13.125 3.25272 13.125 3.75V18.5644C13.125 18.7289 13.0817 18.8906 12.9994 19.0331C12.9171 19.1756 12.7988 19.294 12.6562 19.3762C11.7603 19.8908 11.0595 20.6872 10.663 21.6413C10.2665 22.5954 10.1965 23.6538 10.4639 24.6519C10.7313 25.6499 11.321 26.5316 12.1414 27.1597C12.9618 27.7879 13.9668 28.1272 15 28.125C16.0324 28.1257 17.0362 27.7855 17.8555 27.1572C18.6748 26.5289 19.2637 25.6478 19.5309 24.6505C19.798 23.6532 19.7285 22.5956 19.333 21.6419C18.9375 20.6882 18.2383 19.8918 17.3438 19.3762C17.2012 19.294 17.0829 19.1756 17.0006 19.0331C16.9183 18.8906 16.875 18.7289 16.875 18.5644V3.75C16.875 3.25272 16.6775 2.77581 16.3258 2.42417C15.9742 2.07254 15.4973 1.875 15 1.875V1.875Z" fill="#F2AC5C"/>
<path d="M15.4688 3.75C15.4688 3.62568 15.4194 3.50645 15.3315 3.41854C15.2435 3.33064 15.1243 3.28125 15 3.28125C14.8757 3.28125 14.7565 3.33064 14.6685 3.41854C14.5806 3.50645 14.5312 3.62568 14.5312 3.75V20.6625C14.8416 20.6105 15.1584 20.6105 15.4688 20.6625V3.75Z" fill="#F2AC5C"/>
<path d="M17.8125 23.4375C17.8125 24.1834 17.5162 24.8988 16.9887 25.4262C16.4613 25.9537 15.7459 26.25 15 26.25C14.2541 26.25 13.5387 25.9537 13.0113 25.4262C12.4838 24.8988 12.1875 24.1834 12.1875 23.4375C12.1875 22.6916 12.4838 21.9762 13.0113 21.4488C13.5387 20.9213 14.2541 20.625 15 20.625C15.7459 20.625 16.4613 20.9213 16.9887 21.4488C17.5162 21.9762 17.8125 22.6916 17.8125 23.4375V23.4375Z" fill="#F2AC5C"/>
</svg>
